<!--?xml version="1.0" standalone="no"?-->
              <svg id="sw-js-blob-svg" viewBox="0 0 100 100" xmlns="http://www.w3.org/2000/svg" version="1.1">
                    <defs> 
                        <linearGradient id="sw-gradient" x1="0" x2="1" y1="1" y2="0">
                            <stop id="stop1" stop-color="rgba(248, 117, 55, 1)" offset="0%"></stop>
                            <stop id="stop2" stop-color="rgba(165.019, 31, 251, 1)" offset="100%"></stop>
                        </linearGradient>
                    </defs>
                <path fill="url(#sw-gradient)" d="M22.8,-27.2C29.2,-21.8,33.9,-14.3,36.7,-5.4C39.4,3.4,40.3,13.6,36.1,20.7C31.8,27.8,22.4,31.8,12.9,35.1C3.4,38.3,-6.2,40.8,-13.9,38.1C-21.7,35.3,-27.5,27.3,-32.4,18.8C-37.2,10.2,-41,1.2,-39.5,-6.9C-38,-15,-31.3,-22.2,-23.9,-27.5C-16.4,-32.8,-8.2,-36.2,0,-36.1C8.2,-36.1,16.4,-32.7,22.8,-27.2Z" width="100%" height="100%" transform="translate(50 50)" stroke-width="0" style="transition: all 0.3s ease 0s;" stroke="url(#sw-gradient)"></path>
              </svg>